<?xml version="1.0" standalone="no"?><!DOCTYPE svg PUBLIC "-//W3C//DTD SVG 1.1//EN" "http://www.w3.org/Graphics/SVG/1.1/DTD/svg11.dtd"><svg height="3500" legacy-metrics="false" node-id="1" sillyvg="true" template-height="3500" template-width="4500" version="1.1" viewBox="0 0 4500 3500" width="4500" xmlns="http://www.w3.org/2000/svg" xmlns:xlink="http://www.w3.org/1999/xlink"><defs node-id="84"></defs><path d="M 2110.94 413.51 C 1826.41 412.68 1475.68 493.34 1246.36 765.06 C 1138.75 892.56 1084.86 1012.35 1062.17 1123.07 C 931.05 1233.15 855.24 1395.50 855.01 1566.70 C 855.21 1672.57 884.37 1776.37 939.34 1866.85 C 714.91 1952.81 566.70 2168.23 566.63 2408.56 C 566.91 2570.29 634.68 2724.58 753.59 2834.20 C 757.33 2840.28 759.61 2843.63 759.61 2843.63 L 475.94 3091.12 L 3975.94 3091.12 C 3975.94 3091.12 3834.75 3052.84 3711.48 2987.46 C 3787.59 2920.18 3831.24 2823.52 3831.41 2721.94 C 3831.25 2575.49 3741.21 2444.15 3604.67 2391.18 C 3719.89 2278.83 3784.88 2124.72 3784.90 1963.80 C 3784.34 1752.15 3671.78 1556.62 3489.04 1449.86 C 3524.57 1376.43 3543.14 1295.95 3543.38 1214.38 C 3543.38 913.83 3299.74 670.19 2999.20 670.19 C 2999.19 670.19 2999.19 670.19 2999.19 670.19 C 2931.68 670.19 2864.75 682.76 2801.83 707.25 C 2726.07 614.61 2634.78 552.85 2548.75 498.66 C 2480.01 455.36 2312.00 414.09 2110.94 413.51 L 2110.94 413.51 Z" fill="#f2f4ff" fill-rule="nonzero" id="path20057-52-7-1" node-id="4" stroke="none" target-height="2677.609" target-width="3500" target-x="475.937" target-y="413.507"></path><path d="M 3629.22 1968.40 C 3475.67 1968.77 3341.22 2000.69 3264.31 2088.79 C 2990.87 2402.03 3041.05 2553.91 2706.17 2577.16 C 2371.29 2600.42 2148.33 2520.21 2024.93 2805.66 C 1922.03 3043.67 1581.60 2942.59 1409.26 3091.11 L 3975.94 3091.11 C 3975.94 3091.11 3834.75 3052.84 3711.48 2987.46 C 3787.59 2920.18 3831.24 2823.52 3831.41 2721.94 C 3831.25 2575.49 3741.21 2444.14 3604.67 2391.18 C 3716.36 2282.00 3780.83 2133.41 3784.24 1977.26 C 3731.42 1971.52 3679.31 1968.27 3629.22 1968.40 L 3629.22 1968.40 Z" fill="#e7eaff" fill-rule="nonzero" id="path20059-1-3-7" node-id="5" stroke="none" target-height="1122.717" target-width="2566.68" target-x="1409.258" target-y="1968.398"></path><g node-id="86"><path d="M 3764.96 2405.90 L 3764.71 2412.93 L 3764.90 2419.79 L 3765.51 2426.50 L 3766.54 2433.08 L 3767.99 2439.53 L 3770.38 2447.48 L 3773.32 2455.10 L 3776.83 2462.42 L 3780.90 2469.45 L 3785.50 2476.16 L 3790.55 2482.44 L 3796.07 2488.33 L 3802.07 2493.82 L 3808.46 2498.83 L 3815.22 2503.32 L 3822.35 2507.30 L 3829.90 2510.78 L 3836.08 2513.12 L 3842.44 2515.06 L 3849.00 2516.60 L 3855.77 2517.74 L 3862.77 2518.48 L 3869.80 2518.72 L 3876.66 2518.54 L 3883.37 2517.93 L 3889.94 2516.90 L 3896.39 2515.45 L 3904.35 2513.06 L 3911.97 2510.11 L 3919.29 2506.61 L 3926.32 2502.54 L 3933.03 2497.94 L 3939.31 2492.89 L 3945.20 2487.37 L 3950.69 2481.37 L 3955.70 2474.97 L 3960.19 2468.22 L 3964.17 2461.08 L 3967.65 2453.54 L 3969.99 2447.36 L 3971.93 2440.99 L 3973.47 2434.43 L 3974.61 2427.66 L 3975.35 2420.67 L 3975.59 2413.64 L 3975.41 2406.77 L 3974.80 2400.06 L 3973.77 2393.49 L 3972.32 2387.04 L 3969.93 2379.09 L 3966.98 2371.47 L 3963.48 2364.15 L 3959.41 2357.12 L 3954.81 2350.41 L 3949.76 2344.12 L 3944.24 2338.24 L 3938.24 2332.75 L 3931.84 2327.74 L 3925.09 2323.25 L 3917.95 2319.27 L 3910.41 2315.79 L 3904.23 2313.45 L 3897.86 2311.51 L 3891.30 2309.97 L 3884.53 2308.83 L 3877.54 2308.09 L 3870.51 2307.84 L 3863.64 2308.03 L 3856.93 2308.64 L 3850.36 2309.67 L 3843.91 2311.12 L 3835.96 2313.51 L 3828.34 2316.46 L 3821.02 2319.96 L 3813.99 2324.03 L 3807.28 2328.63 L 3800.99 2333.68 L 3795.11 2339.20 L 3789.62 2345.20 L 3784.61 2351.59 L 3780.12 2358.35 L 3776.13 2365.48 L 3772.66 2373.03 L 3770.32 2379.21 L 3768.38 2385.57 L 3766.84 2392.13 L 3765.70 2398.90 L 3764.96 2405.90 Z" fill="#cecfff" fill-rule="nonzero" group-id="1" id="path6015-4" node-id="7" stroke-linecap="butt" stroke-width="1" target-height="210.88232" target-width="210.88281" target-x="3764.7114" target-y="2307.8428"></path><path d="M 3702.07 2580.53 L 3701.76 2589.44 L 3702.02 2598.14 L 3702.86 2606.66 L 3704.26 2615.01 L 3706.22 2623.29 L 3708.67 2631.30 L 3711.62 2639.07 L 3715.06 2646.62 L 3718.99 2653.95 L 3723.34 2660.95 L 3728.12 2667.64 L 3733.33 2674.04 L 3738.94 2680.10 L 3744.90 2685.76 L 3751.23 2691.05 L 3757.93 2695.96 L 3764.92 2700.43 L 3772.21 2704.43 L 3779.80 2707.98 L 3787.72 2711.07 L 3795.79 2713.63 L 3804.11 2715.65 L 3812.69 2717.13 L 3821.56 2718.06 L 3830.48 2718.38 L 3839.18 2718.11 L 3847.70 2717.27 L 3856.05 2715.87 L 3864.32 2713.91 L 3872.34 2711.46 L 3880.11 2708.51 L 3887.66 2705.07 L 3894.98 2701.14 L 3901.98 2696.79 L 3908.68 2692.01 L 3915.08 2686.80 L 3921.13 2681.19 L 3926.80 2675.23 L 3932.09 2668.91 L 3937.00 2662.20 L 3941.46 2655.21 L 3945.47 2647.92 L 3949.02 2640.33 L 3952.11 2632.41 L 3954.66 2624.34 L 3956.68 2616.02 L 3958.16 2607.44 L 3959.10 2598.57 L 3959.41 2589.66 L 3959.14 2580.95 L 3958.31 2572.43 L 3956.91 2564.08 L 3954.95 2555.81 L 3952.50 2547.79 L 3949.55 2540.02 L 3946.11 2532.47 L 3942.18 2525.15 L 3937.83 2518.15 L 3933.05 2511.45 L 3927.84 2505.05 L 3922.23 2499.00 L 3916.27 2493.33 L 3909.94 2488.05 L 3903.24 2483.13 L 3896.24 2478.67 L 3888.96 2474.66 L 3881.37 2471.12 L 3873.45 2468.02 L 3865.37 2465.47 L 3857.06 2463.45 L 3848.48 2461.97 L 3839.61 2461.03 L 3830.69 2460.72 L 3821.99 2460.99 L 3813.47 2461.82 L 3805.12 2463.22 L 3796.84 2465.18 L 3788.83 2467.63 L 3781.06 2470.58 L 3773.51 2474.03 L 3766.18 2477.95 L 3759.18 2482.30 L 3752.49 2487.08 L 3746.09 2492.29 L 3740.03 2497.90 L 3734.37 2503.86 L 3729.08 2510.19 L 3724.17 2516.89 L 3719.70 2523.89 L 3715.70 2531.17 L 3712.15 2538.76 L 3709.06 2546.68 L 3706.50 2554.76 L 3704.48 2563.07 L 3703.00 2571.66 L 3702.07 2580.53 Z" fill="#cecfff" fill-rule="nonzero" group-id="1" id="path10013-6" node-id="8" stroke-linecap="butt" stroke-width="1" target-height="257.65576" target-width="257.65576" target-x="3701.755" target-y="2460.7197"></path><path d="M 3684.22 2239.91 L 3687.84 2240.00 L 3691.23 2240.59 L 3694.42 2241.66 L 3697.42 2243.20 L 3700.10 2245.10 L 3702.51 2247.38 L 3704.57 2249.98 L 3706.22 2252.83 L 3707.48 2255.96 L 3708.26 2259.23 L 3708.55 2262.65 L 3708.31 2266.27 L 3707.25 2274.65 L 3704.42 2298.26 L 3700.33 2334.87 L 3695.48 2382.20 L 3692.97 2408.74 L 3690.37 2438.01 L 3687.91 2468.08 L 3685.52 2500.04 L 3683.36 2532.51 L 3681.44 2566.04 L 3679.84 2599.79 L 3678.62 2633.74 L 3677.84 2667.64 L 3677.57 2700.90 L 3677.71 2723.02 L 3678.12 2744.47 L 3678.81 2765.26 L 3678.78 2768.48 L 3678.35 2771.53 L 3677.51 2774.45 L 3676.30 2777.23 L 3674.76 2779.78 L 3672.91 2782.13 L 3670.76 2784.21 L 3668.38 2786.00 L 3665.73 2787.49 L 3662.92 2788.61 L 3659.93 2789.36 L 3656.73 2789.72 L 3653.51 2789.62 L 3650.46 2789.12 L 3647.57 2788.23 L 3644.81 2786.96 L 3642.29 2785.38 L 3639.98 2783.48 L 3637.94 2781.29 L 3636.20 2778.87 L 3634.76 2776.20 L 3633.69 2773.37 L 3633.01 2770.36 L 3632.71 2767.15 L 3631.99 2745.63 L 3631.56 2723.52 L 3631.41 2700.80 L 3631.66 2666.65 L 3632.44 2632.01 L 3633.66 2597.34 L 3635.28 2563.00 L 3637.23 2528.91 L 3639.41 2496.00 L 3641.83 2463.62 L 3644.33 2433.21 L 3646.97 2403.64 L 3649.52 2376.87 L 3654.45 2329.18 L 3658.61 2292.38 L 3661.48 2268.66 L 3662.55 2260.27 L 3663.29 2256.61 L 3664.52 2253.26 L 3666.26 2250.17 L 3668.45 2247.38 L 3670.99 2244.99 L 3673.91 2242.98 L 3677.10 2241.44 L 3680.52 2240.42 L 3684.22 2239.91 Z" fill="#a5a3ff" fill-rule="nonzero" group-id="1" id="path10015-8" node-id="9" stroke-linecap="butt" stroke-width="1" target-height="549.8069" target-width="77.13867" target-x="3631.4082" target-y="2239.909"></path><path d="M 3840.95 2470.98 L 3844.55 2471.38 L 3847.87 2472.27 L 3850.96 2473.62 L 3853.81 2475.41 L 3856.32 2477.53 L 3858.52 2480.02 L 3860.34 2482.78 L 3861.74 2485.77 L 3862.73 2488.99 L 3863.23 2492.32 L 3863.21 2495.75 L 3862.66 2499.34 L 3860.88 2507.59 L 3856.01 2530.87 L 3848.75 2566.98 L 3839.81 2613.71 L 3835.00 2639.94 L 3829.87 2668.87 L 3824.81 2698.61 L 3819.65 2730.25 L 3814.68 2762.40 L 3809.85 2795.64 L 3805.33 2829.12 L 3801.16 2862.84 L 3797.44 2896.55 L 3794.29 2929.66 L 3792.50 2951.71 L 3791.05 2973.11 L 3789.93 2993.88 L 3789.62 2997.09 L 3788.92 3000.09 L 3787.84 3002.92 L 3786.39 3005.59 L 3784.64 3007.99 L 3782.58 3010.17 L 3780.27 3012.06 L 3777.74 3013.63 L 3774.97 3014.88 L 3772.07 3015.76 L 3769.03 3016.25 L 3765.81 3016.32 L 3762.61 3015.95 L 3759.62 3015.19 L 3756.81 3014.05 L 3754.17 3012.55 L 3751.80 3010.75 L 3749.66 3008.65 L 3747.82 3006.30 L 3746.30 3003.74 L 3745.10 3000.95 L 3744.28 2998.03 L 3743.86 2994.98 L 3743.84 2991.76 L 3745.00 2970.26 L 3746.48 2948.19 L 3748.31 2925.54 L 3751.53 2891.55 L 3755.31 2857.10 L 3759.54 2822.67 L 3764.13 2788.60 L 3769.03 2754.81 L 3774.07 2722.21 L 3779.29 2690.16 L 3784.42 2660.09 L 3789.61 2630.86 L 3794.48 2604.41 L 3803.53 2557.33 L 3810.88 2521.03 L 3815.80 2497.65 L 3817.60 2489.38 L 3818.65 2485.80 L 3820.17 2482.57 L 3822.16 2479.64 L 3824.59 2477.05 L 3827.32 2474.89 L 3830.41 2473.15 L 3833.72 2471.89 L 3837.22 2471.17 L 3840.95 2470.98 Z" fill="#cecfff" fill-rule="nonzero" group-id="1" id="path10017-66" node-id="10" stroke-linecap="butt" stroke-width="1" target-height="545.343" target-width="119.384766" target-x="3743.8413" target-y="2470.982"></path><path d="M 3484.57 2501.64 L 3480.98 2502.12 L 3477.68 2503.08 L 3474.62 2504.50 L 3471.81 2506.35 L 3469.35 2508.53 L 3467.20 2511.06 L 3465.44 2513.87 L 3464.11 2516.88 L 3463.20 2520.13 L 3462.77 2523.47 L 3462.87 2526.90 L 3463.50 2530.47 L 3465.46 2538.68 L 3470.85 2561.85 L 3478.91 2597.79 L 3488.89 2644.31 L 3494.28 2670.42 L 3500.05 2699.23 L 3505.78 2728.86 L 3511.64 2760.36 L 3517.33 2792.40 L 3522.90 2825.52 L 3528.17 2858.89 L 3533.08 2892.52 L 3537.55 2926.13 L 3541.44 2959.16 L 3543.72 2981.16 L 3545.65 3002.53 L 3547.23 3023.27 L 3547.61 3026.47 L 3548.38 3029.45 L 3549.53 3032.26 L 3551.04 3034.89 L 3552.84 3037.26 L 3554.94 3039.39 L 3557.30 3041.23 L 3559.86 3042.74 L 3562.65 3043.94 L 3565.57 3044.75 L 3568.63 3045.17 L 3571.85 3045.17 L 3575.04 3044.73 L 3578.01 3043.90 L 3580.80 3042.70 L 3583.40 3041.13 L 3585.73 3039.29 L 3587.82 3037.14 L 3589.61 3034.75 L 3591.07 3032.16 L 3592.21 3029.34 L 3592.97 3026.40 L 3593.32 3023.34 L 3593.26 3020.12 L 3591.63 2998.65 L 3589.65 2976.62 L 3587.32 2954.02 L 3583.35 2920.11 L 3578.80 2885.75 L 3573.80 2851.42 L 3568.45 2817.47 L 3562.79 2783.80 L 3557.03 2751.31 L 3551.09 2719.39 L 3545.30 2689.44 L 3539.45 2660.33 L 3534.00 2634.00 L 3523.90 2587.13 L 3515.75 2551.00 L 3510.31 2527.74 L 3508.32 2519.51 L 3507.19 2515.96 L 3505.60 2512.76 L 3503.54 2509.88 L 3501.06 2507.34 L 3498.28 2505.25 L 3495.16 2503.57 L 3491.82 2502.38 L 3488.30 2501.74 L 3484.57 2501.64 Z" fill="#b7bbff" fill-rule="nonzero" group-id="1" id="path10019-4" node-id="11" stroke-linecap="butt" stroke-width="1" target-height="543.53394" target-width="130.54541" target-x="3462.774" target-y="2501.638"></path><path d="M 3347.97 2592.39 L 3349.13 2601.50 L 3350.86 2610.31 L 3353.13 2618.83 L 3355.94 2627.09 L 3359.31 2635.17 L 3363.14 2642.91 L 3367.43 2650.32 L 3372.19 2657.42 L 3377.41 2664.22 L 3383.00 2670.61 L 3388.97 2676.62 L 3395.34 2682.26 L 3402.05 2687.48 L 3409.05 2692.25 L 3416.37 2696.57 L 3424.00 2700.45 L 3431.85 2703.82 L 3439.93 2706.68 L 3448.24 2709.02 L 3456.81 2710.85 L 3465.44 2712.10 L 3474.23 2712.77 L 3483.21 2712.84 L 3492.38 2712.32 L 3501.50 2711.15 L 3510.30 2709.42 L 3518.82 2707.15 L 3527.08 2704.34 L 3535.16 2700.97 L 3542.90 2697.14 L 3550.32 2692.85 L 3557.42 2688.09 L 3564.21 2682.87 L 3570.60 2677.28 L 3576.61 2671.31 L 3582.25 2664.94 L 3587.47 2658.23 L 3592.24 2651.23 L 3596.56 2643.91 L 3600.44 2636.28 L 3603.82 2628.43 L 3606.67 2620.35 L 3609.01 2612.04 L 3610.84 2603.47 L 3612.09 2594.84 L 3612.76 2586.05 L 3612.83 2577.07 L 3612.31 2567.90 L 3611.14 2558.78 L 3609.41 2549.98 L 3607.14 2541.46 L 3604.33 2533.20 L 3600.96 2525.11 L 3597.13 2517.37 L 3592.84 2509.96 L 3588.08 2502.86 L 3582.87 2496.07 L 3577.28 2489.68 L 3571.30 2483.66 L 3564.94 2478.03 L 3558.22 2472.80 L 3551.22 2468.04 L 3543.91 2463.72 L 3536.27 2459.84 L 3528.42 2456.46 L 3520.34 2453.61 L 3512.03 2451.27 L 3503.46 2449.44 L 3494.83 2448.19 L 3486.04 2447.52 L 3477.07 2447.45 L 3467.89 2447.97 L 3458.78 2449.14 L 3449.97 2450.87 L 3441.45 2453.14 L 3433.19 2455.95 L 3425.11 2459.32 L 3417.37 2463.15 L 3409.95 2467.44 L 3402.85 2472.20 L 3396.06 2477.41 L 3389.67 2483.00 L 3383.66 2488.98 L 3378.02 2495.34 L 3372.80 2502.06 L 3368.03 2509.06 L 3363.71 2516.37 L 3359.83 2524.01 L 3356.46 2531.86 L 3353.60 2539.94 L 3351.26 2548.25 L 3349.43 2556.82 L 3348.18 2565.45 L 3347.51 2574.24 L 3347.44 2583.21 L 3347.97 2592.39 Z" fill="#b7bbff" fill-rule="nonzero" group-id="1" id="path10021-1" node-id="12" stroke-linecap="butt" stroke-width="1" target-height="265.3933" target-width="265.39404" target-x="3347.439" target-y="2447.448"></path><path d="M 3860.38 2847.81 L 3831.54 3034.39 L 3830.59 3039.89 L 3829.29 3045.16 L 3827.65 3050.22 L 3825.67 3055.09 L 3823.31 3059.82 L 3820.66 3064.21 L 3817.70 3068.29 L 3814.44 3072.07 L 3810.85 3075.55 L 3806.99 3078.61 L 3802.85 3081.28 L 3798.41 3083.55 L 3793.80 3085.35 L 3788.91 3086.66 L 3783.70 3087.47 L 3778.16 3087.77 L 3540.94 3087.77 L 3535.39 3087.47 L 3530.21 3086.65 L 3525.34 3085.34 L 3520.76 3083.54 L 3516.36 3081.26 L 3512.25 3078.59 L 3508.42 3075.52 L 3504.86 3072.04 L 3501.62 3068.26 L 3498.68 3064.18 L 3496.02 3059.79 L 3493.65 3055.06 L 3491.64 3050.20 L 3489.96 3045.14 L 3488.59 3039.87 L 3487.55 3034.39 L 3460.37 2847.81 L 3860.38 2847.81 Z" fill="#cecfff" fill-rule="nonzero" group-id="1" id="path10023-6" node-id="13" stroke-linecap="butt" stroke-width="1" target-height="239.96704" target-width="400.00195" target-x="3460.3745" target-y="2847.807"></path><path d="M 3860.38 2847.81 L 3852.50 2899.26 L 3467.71 2899.26 L 3460.38 2847.81 L 3860.38 2847.81 Z" fill="#a5a3ff" fill-rule="nonzero" group-id="1" id="path10025-1" node-id="14" stroke-linecap="butt" stroke-width="1" target-height="51.453125" target-width="400.00098" target-x="3460.3755" target-y="2847.807"></path><path d="M 3873.42 2752.48 L 3445.95 2752.48 L 3440.38 2752.77 L 3435.08 2753.57 L 3430.00 2754.87 L 3425.12 2756.66 L 3420.42 2758.93 L 3416.04 2761.58 L 3411.96 2764.63 L 3408.16 2768.08 L 3404.71 2771.88 L 3401.66 2775.96 L 3399.01 2780.34 L 3396.74 2785.05 L 3394.95 2789.92 L 3393.65 2795.00 L 3392.85 2800.30 L 3392.56 2805.86 L 3392.85 2811.43 L 3393.65 2816.73 L 3394.95 2821.81 L 3396.74 2826.68 L 3399.01 2831.39 L 3401.66 2835.77 L 3404.71 2839.85 L 3408.16 2843.65 L 3411.96 2847.10 L 3416.04 2850.15 L 3420.42 2852.80 L 3425.12 2855.07 L 3430.00 2856.86 L 3435.08 2858.16 L 3440.38 2858.96 L 3445.95 2859.25 L 3873.42 2859.25 L 3878.98 2858.96 L 3884.28 2858.16 L 3889.36 2856.86 L 3894.24 2855.07 L 3898.94 2852.80 L 3903.33 2850.15 L 3907.41 2847.10 L 3911.21 2843.65 L 3914.66 2839.85 L 3917.70 2835.77 L 3920.36 2831.39 L 3922.63 2826.68 L 3924.42 2821.81 L 3925.71 2816.73 L 3926.51 2811.43 L 3926.81 2805.86 L 3926.51 2800.30 L 3925.71 2795.00 L 3924.42 2789.92 L 3922.63 2785.05 L 3920.36 2780.34 L 3917.70 2775.96 L 3914.66 2771.88 L 3911.21 2768.08 L 3907.41 2764.63 L 3903.33 2761.58 L 3898.94 2758.93 L 3894.24 2756.66 L 3889.36 2754.87 L 3884.28 2753.57 L 3878.98 2752.77 L 3873.42 2752.48 Z" fill="#b7bbff" fill-rule="nonzero" group-id="1" id="path10027-61" node-id="15" stroke-linecap="butt" stroke-width="1" target-height="106.778076" target-width="534.2529" target-x="3392.5562" target-y="2752.4758"></path><path d="M 3538.23 2327.62 L 3539.21 2335.72 L 3540.59 2343.59 L 3542.36 2351.25 L 3544.51 2358.72 L 3547.05 2366.00 L 3550.78 2374.95 L 3555.01 2383.51 L 3559.76 2391.70 L 3565.02 2399.56 L 3570.79 2407.07 L 3576.97 2414.14 L 3583.58 2420.79 L 3590.62 2427.03 L 3598.05 2432.81 L 3605.80 2438.08 L 3613.88 2442.86 L 3622.33 2447.15 L 3631.01 2450.88 L 3639.94 2454.04 L 3649.14 2456.63 L 3658.61 2458.65 L 3666.24 2459.81 L 3673.98 2460.55 L 3681.83 2460.88 L 3689.82 2460.79 L 3697.96 2460.27 L 3706.05 2459.29 L 3713.93 2457.91 L 3721.59 2456.14 L 3729.06 2453.99 L 3736.34 2451.45 L 3745.28 2447.72 L 3753.84 2443.49 L 3762.04 2438.74 L 3769.90 2433.47 L 3777.41 2427.71 L 3784.48 2421.52 L 3791.13 2414.92 L 3797.37 2407.87 L 3803.14 2400.45 L 3808.42 2392.70 L 3813.19 2384.61 L 3817.48 2376.17 L 3821.22 2367.48 L 3824.38 2358.55 L 3826.97 2349.36 L 3828.99 2339.88 L 3830.14 2332.26 L 3830.89 2324.52 L 3831.22 2316.66 L 3831.13 2308.67 L 3830.61 2300.53 L 3829.62 2292.44 L 3828.25 2284.57 L 3826.48 2276.91 L 3824.33 2269.44 L 3821.79 2262.16 L 3818.06 2253.21 L 3813.82 2244.65 L 3809.08 2236.45 L 3803.81 2228.60 L 3798.04 2221.09 L 3791.86 2214.01 L 3785.26 2207.37 L 3778.21 2201.13 L 3770.79 2195.35 L 3763.04 2190.08 L 3754.95 2185.30 L 3746.51 2181.01 L 3737.82 2177.28 L 3728.89 2174.12 L 3719.70 2171.53 L 3710.22 2169.51 L 3702.59 2168.35 L 3694.86 2167.61 L 3687.00 2167.28 L 3679.01 2167.37 L 3670.87 2167.89 L 3662.78 2168.87 L 3654.91 2170.25 L 3647.25 2172.02 L 3639.78 2174.17 L 3632.49 2176.71 L 3623.55 2180.44 L 3614.99 2184.67 L 3606.79 2189.42 L 3598.94 2194.68 L 3591.43 2200.45 L 3584.35 2206.64 L 3577.71 2213.24 L 3571.47 2220.28 L 3565.69 2227.71 L 3560.42 2235.46 L 3555.64 2243.55 L 3551.35 2251.99 L 3547.62 2260.68 L 3544.46 2269.61 L 3541.87 2278.80 L 3539.85 2288.28 L 3538.69 2295.90 L 3537.95 2303.64 L 3537.62 2311.50 L 3537.71 2319.49 L 3538.23 2327.62 L 3538.23 2327.62 Z" fill="#a5a3ff" fill-rule="nonzero" group-id="1" id="path10031-6" node-id="16" stroke-linecap="butt" stroke-width="1" target-height="293.60278" target-width="293.60303" target-x="3537.6162" target-y="2167.2776"></path><path d="M 3604.58 2123.83 L 3605.44 2130.57 L 3606.69 2137.08 L 3608.32 2143.38 L 3610.33 2149.49 L 3612.72 2155.41 L 3616.24 2162.62 L 3620.24 2169.42 L 3624.72 2175.85 L 3629.70 2181.92 L 3635.13 2187.59 L 3640.93 2192.79 L 3647.11 2197.54 L 3653.69 2201.84 L 3660.57 2205.61 L 3667.70 2208.84 L 3675.13 2211.52 L 3682.86 2213.65 L 3689.12 2214.92 L 3695.49 2215.77 L 3701.98 2216.22 L 3708.61 2216.25 L 3715.40 2215.85 L 3722.14 2214.99 L 3728.65 2213.74 L 3734.95 2212.11 L 3741.05 2210.10 L 3746.97 2207.71 L 3754.18 2204.19 L 3760.99 2200.20 L 3767.41 2195.71 L 3773.48 2190.74 L 3779.16 2185.30 L 3784.36 2179.51 L 3789.10 2173.33 L 3793.40 2166.75 L 3797.18 2159.87 L 3800.40 2152.73 L 3803.08 2145.31 L 3805.22 2137.57 L 3806.48 2131.32 L 3807.34 2124.95 L 3807.78 2118.45 L 3807.81 2111.82 L 3807.42 2105.04 L 3806.56 2098.30 L 3805.31 2091.79 L 3803.68 2085.49 L 3801.67 2079.38 L 3799.28 2073.46 L 3795.76 2066.25 L 3791.76 2059.45 L 3787.28 2053.02 L 3782.30 2046.95 L 3776.87 2041.28 L 3771.07 2036.08 L 3764.89 2031.33 L 3758.32 2027.03 L 3751.44 2023.26 L 3744.30 2020.03 L 3736.87 2017.35 L 3729.14 2015.22 L 3722.88 2013.95 L 3716.51 2013.10 L 3710.02 2012.65 L 3703.39 2012.62 L 3696.61 2013.02 L 3689.86 2013.88 L 3683.35 2015.12 L 3677.05 2016.76 L 3670.95 2018.77 L 3665.03 2021.16 L 3657.82 2024.68 L 3651.01 2028.67 L 3644.59 2033.15 L 3638.52 2038.13 L 3632.84 2043.57 L 3627.64 2049.36 L 3622.90 2055.54 L 3618.60 2062.12 L 3614.82 2069.00 L 3611.60 2076.14 L 3608.92 2083.56 L 3606.78 2091.30 L 3605.52 2097.55 L 3604.67 2103.92 L 3604.22 2110.42 L 3604.19 2117.05 L 3604.58 2123.83 Z" fill="#a5a3ff" fill-rule="nonzero" group-id="1" id="path6013-9" node-id="17" stroke-linecap="butt" stroke-width="1" target-height="203.62341" target-width="203.62354" target-x="3604.19" target-y="2012.6229"></path><path d="M 3336.97 2440.59 L 3337.93 2447.67 L 3339.40 2454.46 L 3341.37 2460.97 L 3343.84 2467.24 L 3346.82 2473.33 L 3350.19 2479.07 L 3353.97 2484.50 L 3358.17 2489.62 L 3362.76 2494.41 L 3367.65 2498.80 L 3372.87 2502.81 L 3378.42 2506.43 L 3384.23 2509.62 L 3390.26 2512.34 L 3396.52 2514.61 L 3403.05 2516.41 L 3409.67 2517.69 L 3416.43 2518.43 L 3423.38 2518.63 L 3430.51 2518.27 L 3437.59 2517.31 L 3444.38 2515.84 L 3450.90 2513.87 L 3457.17 2511.40 L 3463.25 2508.42 L 3469.00 2505.05 L 3474.42 2501.27 L 3479.54 2497.07 L 3484.33 2492.48 L 3488.72 2487.59 L 3492.73 2482.37 L 3496.36 2476.82 L 3499.55 2471.01 L 3502.27 2464.98 L 3504.53 2458.72 L 3506.33 2452.19 L 3507.61 2445.57 L 3508.35 2438.81 L 3508.55 2431.87 L 3508.19 2424.73 L 3507.23 2417.65 L 3505.76 2410.86 L 3503.79 2404.34 L 3501.32 2398.07 L 3498.35 2391.99 L 3494.97 2386.24 L 3491.19 2380.82 L 3486.99 2375.70 L 3482.40 2370.91 L 3477.51 2366.52 L 3472.29 2362.51 L 3466.74 2358.88 L 3460.93 2355.69 L 3454.91 2352.97 L 3448.64 2350.71 L 3442.11 2348.91 L 3435.49 2347.63 L 3428.73 2346.89 L 3421.79 2346.69 L 3414.65 2347.05 L 3407.57 2348.01 L 3400.78 2349.48 L 3394.27 2351.45 L 3388.00 2353.92 L 3381.91 2356.89 L 3376.17 2360.27 L 3370.74 2364.05 L 3365.62 2368.25 L 3360.83 2372.84 L 3356.44 2377.73 L 3352.43 2382.95 L 3348.81 2388.50 L 3345.62 2394.31 L 3342.89 2400.33 L 3340.63 2406.60 L 3338.83 2413.13 L 3337.55 2419.74 L 3336.81 2426.51 L 3336.61 2433.45 L 3336.97 2440.59 Z" fill="#b7bbff" fill-rule="nonzero" group-id="1" id="path6017-3" node-id="18" stroke-linecap="butt" stroke-width="1" target-height="171.93384" target-width="171.9331" target-x="3336.6147" target-y="2346.6914"></path><path d="M 3662.90 2000.29 L 3663.55 2005.12 L 3664.55 2009.75 L 3665.90 2014.19 L 3667.58 2018.46 L 3670.34 2023.94 L 3673.60 2029.02 L 3677.35 2033.72 L 3681.57 2038.01 L 3686.16 2041.83 L 3691.16 2045.18 L 3696.47 2048.01 L 3702.05 2050.28 L 3707.95 2051.98 L 3712.46 2052.86 L 3717.07 2053.36 L 3721.80 2053.50 L 3726.67 2053.25 L 3731.50 2052.60 L 3736.12 2051.60 L 3740.57 2050.25 L 3744.84 2048.57 L 3750.32 2045.80 L 3755.40 2042.55 L 3760.10 2038.80 L 3764.39 2034.58 L 3768.21 2029.99 L 3771.56 2024.99 L 3774.39 2019.68 L 3776.65 2014.09 L 3778.36 2008.20 L 3779.23 2003.69 L 3779.74 1999.07 L 3779.87 1994.34 L 3779.63 1989.48 L 3778.97 1984.65 L 3777.97 1980.02 L 3776.63 1975.58 L 3774.94 1971.30 L 3772.18 1965.83 L 3768.93 1960.75 L 3765.17 1956.05 L 3760.96 1951.76 L 3756.36 1947.94 L 3751.37 1944.59 L 3746.06 1941.76 L 3740.47 1939.49 L 3734.58 1937.79 L 3730.07 1936.91 L 3725.45 1936.41 L 3720.72 1936.28 L 3715.86 1936.52 L 3711.03 1937.17 L 3706.40 1938.17 L 3701.96 1939.52 L 3697.68 1941.20 L 3692.20 1943.97 L 3687.13 1947.22 L 3682.43 1950.97 L 3678.13 1955.19 L 3674.32 1959.78 L 3670.96 1964.78 L 3668.14 1970.09 L 3665.87 1975.67 L 3664.16 1981.57 L 3663.29 1986.08 L 3662.79 1990.69 L 3662.65 1995.43 L 3662.90 2000.29 Z" fill="#a5a3ff" fill-rule="nonzero" group-id="1" id="path6019-1" node-id="19" stroke-linecap="butt" stroke-width="1" target-height="117.22009" target-width="117.21924" target-x="3662.6528" target-y="1936.2753"></path><path d="M 3849.85 2306.80 L 3850.51 2311.62 L 3851.51 2316.25 L 3852.85 2320.69 L 3854.54 2324.97 L 3857.30 2330.45 L 3860.55 2335.52 L 3864.31 2340.22 L 3868.52 2344.52 L 3873.12 2348.33 L 3878.11 2351.69 L 3883.42 2354.52 L 3889.01 2356.78 L 3894.90 2358.49 L 3899.41 2359.36 L 3904.03 2359.86 L 3908.76 2360.00 L 3913.62 2359.76 L 3918.45 2359.10 L 3923.08 2358.10 L 3927.52 2356.76 L 3931.80 2355.07 L 3937.28 2352.31 L 3942.35 2349.06 L 3947.05 2345.30 L 3951.35 2341.09 L 3955.16 2336.49 L 3958.52 2331.50 L 3961.34 2326.19 L 3963.61 2320.60 L 3965.32 2314.71 L 3966.19 2310.19 L 3966.69 2305.58 L 3966.83 2300.85 L 3966.58 2295.98 L 3965.93 2291.16 L 3964.93 2286.53 L 3963.58 2282.09 L 3961.90 2277.81 L 3959.14 2272.33 L 3955.88 2267.26 L 3952.13 2262.56 L 3947.91 2258.26 L 3943.32 2254.45 L 3938.32 2251.09 L 3933.01 2248.26 L 3927.43 2246.00 L 3921.53 2244.29 L 3917.02 2243.42 L 3912.41 2242.91 L 3907.68 2242.78 L 3902.81 2243.02 L 3897.98 2243.68 L 3893.36 2244.68 L 3888.91 2246.02 L 3884.64 2247.71 L 3879.16 2250.47 L 3874.08 2253.72 L 3869.38 2257.48 L 3865.09 2261.69 L 3861.27 2266.29 L 3857.92 2271.28 L 3855.09 2276.59 L 3852.83 2282.18 L 3851.12 2288.07 L 3850.25 2292.59 L 3849.74 2297.20 L 3849.61 2301.93 L 3849.85 2306.80 Z" fill="#cecfff" fill-rule="nonzero" group-id="1" id="path6021-8" node-id="20" stroke-linecap="butt" stroke-width="1" target-height="117.21924" target-width="117.21924" target-x="3849.608" target-y="2242.7803"></path><path d="M 3314.42 2361.48 L 3315.08 2366.31 L 3316.08 2370.94 L 3317.42 2375.38 L 3319.11 2379.66 L 3321.87 2385.14 L 3325.12 2390.21 L 3328.88 2394.91 L 3333.09 2399.20 L 3337.69 2403.02 L 3342.68 2406.37 L 3347.99 2409.20 L 3353.58 2411.47 L 3359.47 2413.18 L 3363.98 2414.05 L 3368.60 2414.55 L 3373.33 2414.69 L 3378.20 2414.44 L 3383.02 2413.79 L 3387.65 2412.79 L 3392.09 2411.44 L 3396.37 2409.76 L 3401.85 2407.00 L 3406.92 2403.74 L 3411.62 2399.99 L 3415.92 2395.77 L 3419.73 2391.18 L 3423.09 2386.18 L 3425.91 2380.87 L 3428.18 2375.29 L 3429.89 2369.39 L 3430.76 2364.88 L 3431.26 2360.27 L 3431.40 2355.54 L 3431.15 2350.67 L 3430.50 2345.84 L 3429.50 2341.22 L 3428.15 2336.77 L 3426.47 2332.50 L 3423.71 2327.02 L 3420.45 2321.94 L 3416.70 2317.24 L 3412.48 2312.95 L 3407.89 2309.13 L 3402.89 2305.78 L 3397.58 2302.95 L 3392.00 2300.69 L 3386.11 2298.98 L 3381.59 2298.11 L 3376.98 2297.60 L 3372.25 2297.47 L 3367.38 2297.71 L 3362.55 2298.37 L 3357.93 2299.37 L 3353.48 2300.71 L 3349.21 2302.40 L 3343.73 2305.16 L 3338.66 2308.41 L 3333.95 2312.17 L 3329.66 2316.38 L 3325.85 2320.97 L 3322.49 2325.97 L 3319.66 2331.28 L 3317.40 2336.87 L 3315.69 2342.76 L 3314.82 2347.27 L 3314.31 2351.89 L 3314.18 2356.62 L 3314.42 2361.48 Z" fill="#b7bbff" fill-rule="nonzero" group-id="1" id="path6023-8" node-id="21" stroke-linecap="butt" stroke-width="1" target-height="117.21924" target-width="117.21924" target-x="3314.1787" target-y="2297.4673"></path></g><path d="M 2450.06 405.07 L 1350.72 405.07 C 1221.19 405.07 1116.90 509.35 1116.90 638.89 L 1116.90 2857.30 C 1116.90 2986.83 1221.23 3087.67 1350.72 3091.11 L 1888.47 3091.11 L 2450.06 3091.11 C 2579.59 3091.11 2683.88 2986.83 2683.88 2857.30 L 2683.88 638.89 C 2683.88 509.35 2579.60 405.07 2450.06 405.07 Z" fill="#b7bbff" fill-rule="nonzero" id="rect25806-8-3-5" node-id="22" stroke="none" target-height="2686.046" target-width="1566.974" target-x="1116.903" target-y="405.069"></path><path d="M 2369.54 539.03 L 1431.24 539.03 C 1327.87 539.03 1244.66 622.24 1244.66 725.61 L 1244.66 2577.26 C 1244.66 2680.63 1327.91 2761.10 1431.24 2763.84 L 1921.41 2763.84 L 2369.54 2763.84 C 2472.91 2763.84 2556.12 2680.63 2556.12 2577.26 L 2556.12 725.61 C 2556.12 622.24 2472.91 539.03 2369.54 539.03 L 2369.54 539.03 Z" fill="#f2f4ff" fill-rule="nonzero" id="path25898-5-3-3" node-id="23" stroke="none" target-height="2224.8179" target-width="1311.4661" target-x="1244.657" target-y="539.027"></path><path d="M 1802.46 2925.78 C 1802.46 2979.87 1846.31 3023.71 1900.39 3023.71 L 1900.39 3023.71 C 1954.47 3023.71 1998.32 2979.87 1998.32 2925.78 C 1998.32 2871.70 1954.47 2827.86 1900.39 2827.86 C 1846.31 2827.86 1802.46 2871.70 1802.46 2925.78 L 1802.46 2925.78 Z" fill="#e3e1ff" fill-rule="nonzero" id="path25902-9-6-4" node-id="24" stroke="none" target-height="195.85498" target-width="195.85596" target-x="1802.463" target-y="2827.856"></path><path d="M 2371.41 815.33 L 1737.61 815.33 L 1737.61 878.92 L 2371.41 878.92 L 2371.41 815.33 Z" fill="#e3e1ff" fill-rule="nonzero" id="rect5982-7" node-id="25" stroke="none" target-height="63.590027" target-width="633.79895" target-x="1737.607" target-y="815.328"></path><path d="M 734.35 1795.41 L 734.68 1808.70 L 735.58 1821.73 L 737.07 1834.53 L 739.12 1847.11 L 741.73 1859.48 L 744.93 1871.80 L 748.63 1883.82 L 752.84 1895.57 L 757.54 1907.06 L 762.76 1918.30 L 768.48 1929.32 L 774.64 1940.02 L 781.23 1950.38 L 788.26 1960.43 L 795.74 1970.18 L 803.65 1979.60 L 811.92 1988.63 L 820.57 1997.27 L 829.60 2005.55 L 839.02 2013.45 L 848.76 2020.93 L 858.81 2027.97 L 869.18 2034.56 L 879.87 2040.72 L 890.90 2046.44 L 902.14 2051.65 L 913.62 2056.36 L 925.37 2060.56 L 937.40 2064.26 L 949.72 2067.46 L 962.09 2070.08 L 974.67 2072.13 L 987.47 2073.61 L 1000.50 2074.52 L 1013.79 2074.84 L 1027.08 2074.52 L 1040.11 2073.61 L 1052.91 2072.13 L 1065.49 2070.08 L 1077.86 2067.46 L 1090.18 2064.27 L 1102.20 2060.56 L 1113.95 2056.36 L 1125.44 2051.65 L 1136.68 2046.44 L 1147.71 2040.72 L 1158.40 2034.56 L 1168.76 2027.97 L 1178.82 2020.94 L 1188.56 2013.45 L 1197.98 2005.55 L 1207.01 1997.28 L 1215.66 1988.63 L 1223.93 1979.60 L 1231.84 1970.18 L 1239.32 1960.43 L 1246.35 1950.38 L 1252.94 1940.02 L 1259.10 1929.33 L 1264.82 1918.30 L 1270.03 1907.06 L 1274.74 1895.57 L 1278.94 1883.82 L 1282.65 1871.80 L 1285.84 1859.48 L 1288.46 1847.11 L 1290.51 1834.53 L 1291.99 1821.73 L 1292.90 1808.70 L 1293.22 1795.41 L 1292.90 1782.12 L 1291.99 1769.08 L 1290.51 1756.29 L 1288.46 1743.71 L 1285.84 1731.34 L 1282.65 1719.02 L 1278.94 1706.99 L 1274.74 1695.24 L 1270.03 1683.76 L 1264.82 1672.52 L 1259.10 1661.49 L 1252.94 1650.80 L 1246.35 1640.43 L 1239.32 1630.38 L 1231.84 1620.64 L 1223.93 1611.22 L 1215.66 1602.19 L 1207.01 1593.54 L 1197.98 1585.27 L 1188.56 1577.36 L 1178.82 1569.88 L 1168.76 1562.85 L 1158.40 1556.25 L 1147.71 1550.10 L 1136.68 1544.37 L 1125.44 1539.16 L 1113.95 1534.46 L 1102.20 1530.25 L 1090.18 1526.55 L 1077.86 1523.35 L 1065.49 1520.73 L 1052.91 1518.68 L 1040.11 1517.20 L 1027.08 1516.30 L 1013.79 1515.97 L 1000.50 1516.30 L 987.47 1517.20 L 974.67 1518.68 L 962.09 1520.73 L 949.72 1523.35 L 937.40 1526.55 L 925.37 1530.25 L 913.62 1534.46 L 902.14 1539.16 L 890.90 1544.37 L 879.87 1550.10 L 869.18 1556.25 L 858.81 1562.85 L 848.76 1569.88 L 839.02 1577.36 L 829.60 1585.27 L 820.57 1593.54 L 811.92 1602.19 L 803.65 1611.22 L 795.74 1620.63 L 788.26 1630.38 L 781.23 1640.43 L 774.64 1650.80 L 768.48 1661.49 L 762.76 1672.52 L 757.54 1683.76 L 752.84 1695.24 L 748.63 1706.99 L 744.93 1719.02 L 741.73 1731.34 L 739.12 1743.71 L 737.06 1756.29 L 735.58 1769.08 L 734.68 1782.12 L 734.35 1795.41 Z" fill="#a5a3ff" fill-rule="nonzero" group-id="2" id="circle10041-7" node-id="27" stroke-linecap="butt" stroke-width="1" target-height="558.87085" target-width="558.8699" target-x="734.354" target-y="1515.9727"></path><path d="M 887.10 1534.44 L 884.28 1534.73 L 881.52 1535.54 L 878.77 1536.92 L 876.01 1538.93 L 873.58 1541.23 L 871.16 1544.03 L 868.77 1547.41 L 866.39 1551.44 L 863.71 1556.92 L 861.18 1563.26 L 858.82 1570.54 L 856.89 1577.92 L 855.23 1585.99 L 853.86 1594.79 L 852.89 1603.63 L 852.29 1612.95 L 852.08 1622.77 L 852.08 2951.92 L 852.29 2961.74 L 852.89 2971.06 L 853.86 2979.90 L 855.23 2988.70 L 856.89 2996.77 L 858.82 3004.15 L 861.18 3011.44 L 863.71 3017.77 L 866.39 3023.25 L 868.77 3027.28 L 871.16 3030.66 L 873.58 3033.47 L 876.01 3035.76 L 878.77 3037.77 L 881.52 3039.15 L 884.28 3039.96 L 887.10 3040.25 L 889.92 3039.96 L 892.68 3039.15 L 895.43 3037.77 L 898.20 3035.76 L 900.63 3033.47 L 903.04 3030.66 L 905.44 3027.28 L 907.81 3023.25 L 910.49 3017.77 L 913.03 3011.44 L 915.39 3004.15 L 917.31 2996.77 L 918.97 2988.70 L 920.35 2979.90 L 921.31 2971.06 L 921.91 2961.74 L 922.13 2951.92 L 922.13 1622.77 L 921.91 1612.95 L 921.31 1603.63 L 920.35 1594.79 L 918.97 1585.99 L 917.31 1577.92 L 915.39 1570.54 L 913.03 1563.26 L 910.49 1556.92 L 907.81 1551.44 L 905.44 1547.41 L 903.04 1544.03 L 900.63 1541.23 L 898.19 1538.93 L 895.43 1536.92 L 892.68 1535.54 L 889.92 1534.73 L 887.10 1534.44 Z" fill="#a5a3ff" fill-rule="nonzero" group-id="2" id="rect10081-4" node-id="28" stroke-linecap="butt" stroke-width="1" target-height="1505.8127" target-width="70.04712" target-x="852.07886" target-y="1534.4387"></path><path d="M 586.37 1325.86 L 586.65 1338.98 L 587.43 1351.88 L 588.72 1364.58 L 590.50 1377.10 L 592.78 1389.43 L 595.56 1401.73 L 598.79 1413.79 L 602.47 1425.62 L 606.59 1437.23 L 611.16 1448.63 L 616.18 1459.88 L 621.60 1470.86 L 627.41 1481.56 L 633.62 1492.01 L 640.24 1502.21 L 647.25 1512.16 L 654.60 1521.80 L 662.29 1531.13 L 670.34 1540.16 L 678.75 1548.89 L 687.48 1557.30 L 696.51 1565.35 L 705.84 1573.04 L 715.48 1580.39 L 725.43 1587.40 L 735.63 1594.02 L 746.08 1600.23 L 756.78 1606.04 L 767.76 1611.46 L 779.01 1616.48 L 790.41 1621.05 L 802.02 1625.17 L 813.85 1628.85 L 825.91 1632.08 L 838.21 1634.86 L 850.54 1637.14 L 863.06 1638.92 L 875.76 1640.21 L 888.66 1640.99 L 901.78 1641.27 L 914.89 1640.99 L 927.80 1640.21 L 940.50 1638.92 L 953.01 1637.14 L 965.34 1634.86 L 977.64 1632.08 L 989.71 1628.85 L 1001.54 1625.17 L 1013.15 1621.05 L 1024.55 1616.48 L 1035.80 1611.46 L 1046.77 1606.04 L 1057.48 1600.23 L 1067.92 1594.02 L 1078.12 1587.40 L 1088.08 1580.40 L 1097.71 1573.04 L 1107.04 1565.35 L 1116.07 1557.30 L 1124.80 1548.89 L 1133.21 1540.16 L 1141.26 1531.13 L 1148.96 1521.80 L 1156.31 1512.16 L 1163.32 1502.21 L 1169.93 1492.01 L 1176.14 1481.56 L 1181.95 1470.86 L 1187.37 1459.88 L 1192.40 1448.63 L 1196.96 1437.23 L 1201.09 1425.62 L 1204.76 1413.79 L 1207.99 1401.73 L 1210.78 1389.43 L 1213.05 1377.10 L 1214.84 1364.58 L 1216.12 1351.88 L 1216.91 1338.98 L 1217.18 1325.86 L 1216.91 1312.75 L 1216.12 1299.84 L 1214.84 1287.14 L 1213.05 1274.63 L 1210.78 1262.30 L 1207.99 1250.00 L 1204.76 1237.93 L 1201.09 1226.10 L 1196.96 1214.49 L 1192.40 1203.09 L 1187.37 1191.84 L 1181.95 1180.87 L 1176.14 1170.16 L 1169.93 1159.72 L 1163.32 1149.52 L 1156.31 1139.56 L 1148.96 1129.93 L 1141.26 1120.60 L 1133.21 1111.57 L 1124.80 1102.84 L 1116.07 1094.43 L 1107.04 1086.38 L 1097.71 1078.68 L 1088.08 1071.33 L 1078.12 1064.32 L 1067.92 1057.71 L 1057.48 1051.50 L 1046.77 1045.69 L 1035.80 1040.27 L 1024.55 1035.24 L 1013.15 1030.68 L 1001.54 1026.56 L 989.71 1022.88 L 977.64 1019.65 L 965.34 1016.86 L 953.01 1014.59 L 940.50 1012.81 L 927.80 1011.52 L 914.89 1010.73 L 901.78 1010.46 L 901.78 1010.46 L 888.66 1010.73 L 875.76 1011.52 L 863.06 1012.81 L 850.54 1014.59 L 838.21 1016.86 L 825.91 1019.65 L 813.85 1022.88 L 802.02 1026.55 L 790.41 1030.68 L 779.01 1035.24 L 767.76 1040.27 L 756.78 1045.69 L 746.08 1051.50 L 735.63 1057.71 L 725.43 1064.32 L 715.48 1071.33 L 705.84 1078.68 L 696.51 1086.38 L 687.48 1094.43 L 678.75 1102.84 L 670.34 1111.57 L 662.29 1120.60 L 654.60 1129.93 L 647.25 1139.56 L 640.24 1149.52 L 633.62 1159.72 L 627.41 1170.16 L 621.60 1180.87 L 616.18 1191.84 L 611.16 1203.09 L 606.59 1214.49 L 602.47 1226.10 L 598.79 1237.93 L 595.56 1250.00 L 592.78 1262.30 L 590.50 1274.63 L 588.72 1287.14 L 587.43 1299.84 L 586.65 1312.75 L 586.37 1325.86 L 586.37 1325.86 Z" fill="#e3e1ff" fill-rule="nonzero" group-id="2" id="path10037-9" node-id="29" stroke-linecap="butt" stroke-width="1" target-height="630.8141" target-width="630.81396" target-x="586.3699" target-y="1010.45667"></path><path d="M 495.52 1658.71 L 495.85 1672.00 L 496.75 1685.04 L 498.23 1697.84 L 500.29 1710.41 L 502.90 1722.79 L 506.10 1735.10 L 509.80 1747.13 L 514.01 1758.88 L 518.71 1770.36 L 523.92 1781.60 L 529.65 1792.63 L 535.81 1803.32 L 542.40 1813.69 L 549.43 1823.74 L 556.91 1833.49 L 564.82 1842.90 L 573.09 1851.93 L 581.74 1860.58 L 590.77 1868.85 L 600.19 1876.76 L 609.93 1884.24 L 619.98 1891.27 L 630.35 1897.87 L 641.04 1904.02 L 652.07 1909.75 L 663.31 1914.96 L 674.79 1919.66 L 686.54 1923.87 L 698.57 1927.57 L 710.89 1930.77 L 723.26 1933.39 L 735.84 1935.44 L 748.63 1936.92 L 761.67 1937.83 L 774.96 1938.15 L 788.24 1937.83 L 801.28 1936.92 L 814.08 1935.44 L 826.66 1933.39 L 839.03 1930.77 L 851.35 1927.57 L 863.37 1923.87 L 875.12 1919.66 L 886.61 1914.96 L 897.85 1909.75 L 908.87 1904.02 L 919.57 1897.87 L 929.93 1891.27 L 939.98 1884.24 L 949.73 1876.76 L 959.15 1868.85 L 968.18 1860.58 L 976.82 1851.93 L 985.10 1842.91 L 993.00 1833.49 L 1000.48 1823.74 L 1007.52 1813.69 L 1014.11 1803.32 L 1020.27 1792.63 L 1025.99 1781.60 L 1031.20 1770.37 L 1035.91 1758.88 L 1040.11 1747.13 L 1043.81 1735.10 L 1047.01 1722.79 L 1049.63 1710.41 L 1051.68 1697.84 L 1053.16 1685.04 L 1054.07 1672.00 L 1054.39 1658.71 L 1054.07 1645.43 L 1053.16 1632.39 L 1051.68 1619.59 L 1049.63 1607.01 L 1047.01 1594.64 L 1043.81 1582.33 L 1040.11 1570.30 L 1035.91 1558.55 L 1031.20 1547.06 L 1025.99 1535.83 L 1020.27 1524.80 L 1014.11 1514.11 L 1007.52 1503.74 L 1000.49 1493.69 L 993.00 1483.94 L 985.10 1474.52 L 976.82 1465.49 L 968.18 1456.85 L 959.15 1448.57 L 949.73 1440.67 L 939.98 1433.19 L 929.93 1426.15 L 919.57 1419.56 L 908.87 1413.40 L 897.85 1407.68 L 886.61 1402.47 L 875.12 1397.76 L 863.37 1393.56 L 851.35 1389.86 L 839.03 1386.66 L 826.66 1384.04 L 814.08 1381.99 L 801.28 1380.51 L 788.24 1379.60 L 774.96 1379.28 L 761.67 1379.60 L 748.63 1380.51 L 735.83 1381.99 L 723.26 1384.04 L 710.89 1386.66 L 698.57 1389.86 L 686.54 1393.56 L 674.79 1397.76 L 663.31 1402.47 L 652.07 1407.68 L 641.04 1413.40 L 630.35 1419.56 L 619.98 1426.15 L 609.93 1433.19 L 600.19 1440.67 L 590.77 1448.57 L 581.74 1456.85 L 573.09 1465.49 L 564.82 1474.52 L 556.91 1483.94 L 549.43 1493.69 L 542.40 1503.74 L 535.80 1514.11 L 529.65 1524.80 L 523.92 1535.83 L 518.71 1547.06 L 514.01 1558.55 L 509.80 1570.30 L 506.10 1582.33 L 502.90 1594.64 L 500.29 1607.01 L 498.23 1619.59 L 496.75 1632.39 L 495.85 1645.43 L 495.52 1658.71 Z" fill="#b7bbff" fill-rule="nonzero" group-id="2" id="circle10039-1" node-id="30" stroke-linecap="butt" stroke-width="1" target-height="558.87" target-width="558.8699" target-x="495.52295" target-y="1379.2787"></path><path d="M 1063.74 2847.12 L 1034.91 3037.51 L 1033.96 3043.01 L 1032.66 3048.29 L 1031.02 3053.35 L 1029.04 3058.22 L 1026.68 3062.94 L 1024.03 3067.33 L 1021.07 3071.41 L 1017.81 3075.20 L 1014.22 3078.67 L 1010.36 3081.74 L 1006.22 3084.40 L 1001.78 3086.68 L 997.17 3088.47 L 992.27 3089.78 L 987.07 3090.60 L 981.52 3090.90 L 742.72 3090.90 L 737.18 3090.59 L 731.99 3089.78 L 727.12 3088.46 L 722.54 3086.67 L 718.14 3084.39 L 714.03 3081.72 L 710.20 3078.65 L 706.64 3075.17 L 703.40 3071.38 L 700.46 3067.30 L 697.80 3062.91 L 695.43 3058.18 L 693.42 3053.32 L 691.74 3048.26 L 690.37 3043.00 L 689.33 3037.51 L 662.15 2847.12 L 1063.74 2847.12 Z" fill="#cecfff" fill-rule="nonzero" group-id="2" id="path10055-0" node-id="31" stroke-linecap="butt" stroke-width="1" target-height="243.78198" target-width="401.59094" target-x="662.15393" target-y="2847.1177"></path><path d="M 1063.74 2847.12 L 1055.57 2902.39 L 669.95 2902.39 L 662.15 2847.12 L 1063.74 2847.12 Z" fill="#b7bbff" fill-rule="nonzero" group-id="2" id="path10057-0" node-id="32" stroke-linecap="butt" stroke-width="1" target-height="55.267822" target-width="401.58997" target-x="662.1549" target-y="2847.1177"></path><path d="M 682.34 2442.43 L 679.98 2443.99 L 677.91 2446.00 L 676.11 2448.49 L 674.59 2451.55 L 673.50 2454.72 L 672.67 2458.32 L 672.11 2462.43 L 671.88 2467.10 L 672.04 2473.20 L 672.74 2479.98 L 674.03 2487.53 L 675.75 2494.97 L 678.02 2502.89 L 680.88 2511.32 L 684.13 2519.60 L 687.92 2528.13 L 692.29 2536.93 L 806.20 2754.48 L 810.95 2763.09 L 815.80 2771.06 L 820.75 2778.44 L 826.05 2785.61 L 831.27 2791.98 L 836.40 2797.63 L 841.87 2802.99 L 847.05 2807.43 L 851.97 2811.04 L 855.94 2813.50 L 859.63 2815.39 L 863.07 2816.75 L 866.29 2817.66 L 869.67 2818.15 L 872.75 2818.10 L 875.57 2817.54 L 878.20 2816.49 L 880.56 2814.93 L 882.63 2812.92 L 884.43 2810.43 L 885.95 2807.37 L 887.04 2804.21 L 887.87 2800.60 L 888.43 2796.49 L 888.66 2791.82 L 888.49 2785.73 L 887.80 2778.94 L 886.51 2771.39 L 884.79 2763.95 L 882.52 2756.04 L 879.65 2747.60 L 876.41 2739.32 L 872.62 2730.79 L 868.25 2721.99 L 754.34 2504.44 L 749.59 2495.84 L 744.74 2487.86 L 739.79 2480.48 L 734.49 2473.32 L 729.27 2466.94 L 724.14 2461.29 L 718.67 2455.93 L 713.49 2451.50 L 708.57 2447.88 L 704.60 2445.42 L 700.91 2443.54 L 697.47 2442.17 L 694.25 2441.26 L 690.87 2440.77 L 687.79 2440.82 L 684.97 2441.38 L 682.34 2442.43 Z" fill="#a5a3ff" fill-rule="nonzero" group-id="2" id="rect10089-0" node-id="33" stroke-linecap="butt" stroke-width="1" target-height="377.38818" target-width="216.7865" target-x="671.87683" target-y="2440.7666"></path><path d="M 1075.20 2755.60 L 647.72 2755.60 L 642.16 2755.90 L 636.86 2756.70 L 631.78 2757.99 L 626.90 2759.78 L 622.20 2762.05 L 617.82 2764.71 L 613.74 2767.75 L 609.94 2771.20 L 606.49 2775.00 L 603.44 2779.08 L 600.79 2783.47 L 598.52 2788.17 L 596.73 2793.05 L 595.43 2798.13 L 594.63 2803.43 L 594.34 2808.99 L 594.63 2814.55 L 595.43 2819.86 L 596.73 2824.93 L 598.52 2829.81 L 600.79 2834.52 L 603.44 2838.90 L 606.49 2842.98 L 609.94 2846.78 L 613.74 2850.23 L 617.82 2853.27 L 622.20 2855.93 L 626.90 2858.20 L 631.78 2859.99 L 636.86 2861.28 L 642.16 2862.08 L 647.72 2862.38 L 1075.20 2862.38 L 1080.76 2862.08 L 1086.06 2861.28 L 1091.14 2859.99 L 1096.02 2858.20 L 1100.72 2855.93 L 1105.11 2853.27 L 1109.19 2850.23 L 1112.99 2846.78 L 1116.44 2842.98 L 1119.48 2838.90 L 1122.14 2834.52 L 1124.41 2829.81 L 1126.20 2824.93 L 1127.49 2819.86 L 1128.29 2814.55 L 1128.59 2808.99 L 1128.29 2803.43 L 1127.49 2798.13 L 1126.20 2793.05 L 1124.41 2788.17 L 1122.14 2783.47 L 1119.48 2779.08 L 1116.44 2775.00 L 1112.98 2771.20 L 1109.19 2767.75 L 1105.11 2764.71 L 1100.72 2762.05 L 1096.02 2759.78 L 1091.14 2757.99 L 1086.06 2756.70 L 1080.76 2755.90 L 1075.20 2755.60 Z" fill="#cecfff" fill-rule="nonzero" group-id="2" id="path10059-1" node-id="34" stroke-linecap="butt" stroke-width="1" target-height="106.778076" target-width="534.2529" target-x="594.33594" target-y="2755.6016"></path><path d="M 535.96 2476.28 L 536.20 2483.22 L 536.86 2489.95 L 537.92 2496.51 L 539.39 2502.90 L 541.26 2509.14 L 544.16 2516.80 L 547.58 2524.10 L 551.53 2531.05 L 556.02 2537.68 L 561.01 2543.97 L 566.41 2549.80 L 572.25 2555.20 L 578.53 2560.19 L 585.16 2564.68 L 592.11 2568.63 L 599.41 2572.05 L 607.07 2574.95 L 613.31 2576.82 L 619.70 2578.29 L 626.26 2579.35 L 632.99 2580.01 L 639.93 2580.25 L 639.93 2580.25 L 646.86 2580.01 L 653.60 2579.35 L 660.15 2578.29 L 666.55 2576.82 L 672.79 2574.95 L 680.45 2572.05 L 687.74 2568.63 L 694.69 2564.68 L 701.33 2560.19 L 707.61 2555.20 L 713.44 2549.80 L 718.85 2543.97 L 723.83 2537.68 L 728.32 2531.05 L 732.27 2524.10 L 735.69 2516.80 L 738.59 2509.14 L 740.46 2502.90 L 741.93 2496.51 L 743.00 2489.95 L 743.65 2483.22 L 743.89 2476.28 L 743.89 2476.28 L 743.65 2469.35 L 743.00 2462.62 L 741.93 2456.06 L 740.46 2449.67 L 738.59 2443.42 L 735.69 2435.76 L 732.27 2428.47 L 728.32 2421.52 L 723.83 2414.88 L 718.85 2408.60 L 713.44 2402.77 L 707.61 2397.37 L 701.33 2392.38 L 694.69 2387.89 L 687.74 2383.94 L 680.45 2380.52 L 672.79 2377.62 L 666.55 2375.75 L 660.15 2374.28 L 653.60 2373.21 L 646.86 2372.56 L 639.93 2372.32 L 632.99 2372.56 L 626.26 2373.22 L 619.70 2374.28 L 613.31 2375.75 L 607.07 2377.62 L 599.41 2380.52 L 592.11 2383.94 L 585.16 2387.89 L 578.53 2392.38 L 572.25 2397.37 L 566.41 2402.77 L 561.01 2408.60 L 556.02 2414.88 L 551.53 2421.52 L 547.58 2428.47 L 544.16 2435.76 L 541.26 2443.42 L 539.39 2449.67 L 537.92 2456.06 L 536.86 2462.62 L 536.20 2469.35 L 535.96 2476.28 L 535.96 2476.28 Z" fill="#a5a3ff" fill-rule="nonzero" group-id="2" id="circle10083-7" node-id="35" stroke-linecap="butt" stroke-width="1" target-height="207.93188" target-width="207.92993" target-x="535.9619" target-y="2372.3186"></path><path d="M 541.73 2277.04 L 541.99 2286.15 L 542.71 2295.05 L 543.89 2303.75 L 545.52 2312.28 L 547.59 2320.65 L 550.12 2328.95 L 553.04 2337.00 L 556.35 2344.83 L 560.04 2352.44 L 564.13 2359.83 L 568.60 2367.03 L 573.40 2373.94 L 578.52 2380.57 L 583.98 2386.94 L 589.78 2393.04 L 595.88 2398.83 L 602.24 2404.29 L 608.87 2409.41 L 615.78 2414.21 L 622.98 2418.69 L 630.38 2422.77 L 637.98 2426.47 L 645.81 2429.77 L 653.87 2432.69 L 662.17 2435.22 L 670.53 2437.30 L 679.06 2438.92 L 687.77 2440.10 L 696.67 2440.82 L 705.77 2441.08 L 705.77 2441.08 L 714.88 2440.82 L 723.78 2440.10 L 732.49 2438.92 L 741.02 2437.30 L 749.38 2435.22 L 757.68 2432.69 L 765.74 2429.77 L 773.56 2426.47 L 781.17 2422.77 L 788.57 2418.68 L 795.77 2414.21 L 802.68 2409.41 L 809.31 2404.29 L 815.67 2398.83 L 821.77 2393.04 L 827.57 2386.94 L 833.02 2380.57 L 838.15 2373.94 L 842.94 2367.03 L 847.42 2359.84 L 851.51 2352.44 L 855.20 2344.83 L 858.51 2337.00 L 861.43 2328.95 L 863.96 2320.65 L 866.03 2312.28 L 867.66 2303.75 L 868.83 2295.05 L 869.56 2286.15 L 869.82 2277.04 L 869.56 2267.93 L 868.83 2259.03 L 867.66 2250.32 L 866.03 2241.80 L 863.96 2233.43 L 861.42 2225.13 L 858.51 2217.07 L 855.20 2209.25 L 851.51 2201.64 L 847.42 2194.24 L 842.94 2187.05 L 838.15 2180.14 L 833.02 2173.50 L 827.57 2167.14 L 821.77 2161.04 L 815.67 2155.25 L 809.31 2149.79 L 802.68 2144.67 L 795.77 2139.87 L 788.57 2135.39 L 781.17 2131.31 L 773.56 2127.61 L 765.74 2124.31 L 757.68 2121.39 L 749.38 2118.86 L 741.02 2116.78 L 732.49 2115.16 L 723.78 2113.98 L 714.88 2113.26 L 705.77 2113.00 L 696.67 2113.26 L 687.77 2113.98 L 679.06 2115.16 L 670.53 2116.78 L 662.16 2118.86 L 653.87 2121.39 L 645.81 2124.31 L 637.98 2127.61 L 630.38 2131.31 L 622.98 2135.39 L 615.78 2139.87 L 608.87 2144.67 L 602.24 2149.79 L 595.88 2155.25 L 589.78 2161.04 L 583.98 2167.14 L 578.52 2173.50 L 573.40 2180.14 L 568.60 2187.05 L 564.13 2194.24 L 560.04 2201.64 L 556.35 2209.25 L 553.04 2217.08 L 550.12 2225.13 L 547.59 2233.43 L 545.52 2241.80 L 543.89 2250.32 L 542.71 2259.03 L 541.99 2267.93 L 541.73 2277.04 Z" fill="#e3e1ff" fill-rule="nonzero" group-id="2" id="circle10085-9" node-id="36" stroke-linecap="butt" stroke-width="1" target-height="328.08398" target-width="328.08398" target-x="541.73193" target-y="2112.9976"></path><path d="M 683.33 2439.36 L 683.57 2447.43 L 684.21 2455.32 L 685.25 2463.03 L 686.69 2470.59 L 688.53 2478.00 L 691.38 2487.15 L 694.78 2495.98 L 698.70 2504.49 L 703.18 2512.72 L 708.18 2520.65 L 713.63 2528.18 L 719.53 2535.34 L 725.90 2542.13 L 732.69 2548.50 L 739.85 2554.41 L 747.38 2559.85 L 755.32 2564.85 L 763.54 2569.33 L 772.05 2573.26 L 780.88 2576.65 L 790.03 2579.51 L 797.44 2581.34 L 805.00 2582.78 L 812.72 2583.83 L 820.60 2584.47 L 828.67 2584.70 L 836.74 2584.47 L 844.62 2583.83 L 852.33 2582.78 L 859.89 2581.34 L 867.30 2579.51 L 876.46 2576.65 L 885.28 2573.26 L 893.80 2569.33 L 902.02 2564.85 L 909.95 2559.85 L 917.49 2554.41 L 924.64 2548.50 L 931.43 2542.13 L 937.81 2535.34 L 943.71 2528.18 L 949.16 2520.65 L 954.16 2512.72 L 958.63 2504.49 L 962.56 2495.98 L 965.95 2487.16 L 968.81 2478.00 L 970.65 2470.59 L 972.09 2463.03 L 973.13 2455.32 L 973.77 2447.43 L 974.00 2439.36 L 973.77 2431.29 L 973.13 2423.41 L 972.09 2415.70 L 970.65 2408.14 L 968.81 2400.73 L 965.95 2391.57 L 962.56 2382.75 L 958.63 2374.23 L 954.16 2366.01 L 949.16 2358.08 L 943.71 2350.54 L 937.81 2343.39 L 931.43 2336.60 L 924.64 2330.22 L 917.49 2324.32 L 909.95 2318.87 L 902.02 2313.87 L 893.80 2309.40 L 885.28 2305.47 L 876.46 2302.08 L 867.30 2299.22 L 859.89 2297.38 L 852.34 2295.94 L 844.62 2294.90 L 836.74 2294.26 L 828.67 2294.03 L 828.67 2294.03 L 820.60 2294.26 L 812.71 2294.90 L 805.00 2295.94 L 797.44 2297.38 L 790.03 2299.22 L 780.88 2302.08 L 772.05 2305.47 L 763.54 2309.40 L 755.31 2313.87 L 747.38 2318.87 L 739.85 2324.32 L 732.69 2330.22 L 725.90 2336.60 L 719.53 2343.39 L 713.62 2350.54 L 708.18 2358.08 L 703.18 2366.01 L 698.70 2374.23 L 694.78 2382.75 L 691.38 2391.57 L 688.53 2400.73 L 686.69 2408.14 L 685.25 2415.70 L 684.21 2423.41 L 683.57 2431.29 L 683.33 2439.36 L 683.33 2439.36 Z" fill="#b7bbff" fill-rule="nonzero" group-id="2" id="circle10087-2" node-id="37" stroke-linecap="butt" stroke-width="1" target-height="290.66602" target-width="290.66614" target-x="683.33484" target-y="2294.0305"></path><path d="M 1403.74 847.92 C 1404.07 917.11 1492.46 1048.60 1529.62 1048.42 C 1573.01 1048.21 1654.63 915.90 1654.30 846.71 C 1653.96 777.52 1597.61 721.70 1528.42 722.03 C 1459.23 722.37 1403.40 778.73 1403.74 847.92 L 1403.74 847.92 Z" fill="#b7bbff" fill-rule="nonzero" id="path11838" node-id="38" stroke="none" target-height="326.38507" target-width="250.56006" target-x="1403.736" target-y="722.035"></path><path d="M 1977.51 948.42 L 1737.61 948.42 L 1737.61 1012.01 L 1977.51 1012.01 L 1977.51 948.42 Z" fill="#e3e1ff" fill-rule="nonzero" id="rect11840" node-id="39" stroke="none" target-height="63.590027" target-width="239.90588" target-x="1737.607" target-y="948.425"></path><path d="M 1587.45 847.02 C 1587.45 879.69 1560.97 906.16 1528.31 906.16 C 1495.65 906.16 1469.17 879.69 1469.17 847.02 C 1469.17 814.36 1495.65 787.89 1528.31 787.89 L 1528.31 787.89 C 1560.97 787.89 1587.45 814.36 1587.45 847.02 L 1587.45 847.02 Z" fill="#f2f4ff" fill-rule="nonzero" id="path11844" node-id="40" stroke="none" target-height="118.278015" target-width="118.27698" target-x="1469.175" target-y="787.886"></path><path d="M 2371.41 1311.74 L 1737.61 1311.74 L 1737.61 1375.33 L 2371.41 1375.33 L 2371.41 1311.74 Z" fill="#e3e1ff" fill-rule="nonzero" id="rect11846" node-id="41" stroke="none" target-height="63.590088" target-width="633.79895" target-x="1737.607" target-y="1311.741"></path><path d="M 1403.74 1344.33 C 1404.07 1413.52 1492.46 1545.01 1529.62 1544.84 C 1573.01 1544.63 1654.63 1412.32 1654.30 1343.13 C 1653.96 1273.94 1597.61 1218.12 1528.42 1218.45 C 1459.23 1218.78 1403.40 1275.14 1403.74 1344.33 L 1403.74 1344.33 Z" fill="#b7bbff" fill-rule="nonzero" id="path11848" node-id="42" stroke="none" target-height="326.3839" target-width="250.56006" target-x="1403.736" target-y="1218.451"></path><path d="M 1977.51 1444.84 L 1737.61 1444.84 L 1737.61 1508.43 L 1977.51 1508.43 L 1977.51 1444.84 Z" fill="#e3e1ff" fill-rule="nonzero" id="rect11850" node-id="43" stroke="none" target-height="63.589966" target-width="239.90588" target-x="1737.607" target-y="1444.838"></path><path d="M 1587.45 1343.44 C 1587.45 1376.10 1560.97 1402.58 1528.31 1402.58 C 1495.65 1402.58 1469.17 1376.10 1469.17 1343.44 C 1469.17 1310.78 1495.65 1284.30 1528.31 1284.30 C 1560.97 1284.30 1587.45 1310.78 1587.45 1343.44 Z" fill="#f2f4ff" fill-rule="nonzero" id="circle11852" node-id="44" stroke="none" target-height="118.278076" target-width="118.27698" target-x="1469.175" target-y="1284.299"></path><path d="M 3086.82 3005.84 L 3094.96 2939.58 L 3015.57 2939.58 L 2996.66 2939.58 L 2995.01 3032.95 L 3086.82 3005.84 Z" fill="#f6c6c0" fill-rule="nonzero" id="path913-35" node-id="45" stroke="none" target-height="93.36304" target-width="99.94409" target-x="2995.015" target-y="2939.582"></path><path d="M 3142.83 901.26 L 3096.39 937.45 C 3096.39 937.45 3086.01 890.99 2994.74 933.33 C 2959.19 949.82 2925.93 973.75 2906.28 987.51 C 2906.28 987.51 2824.73 1041.87 2801.84 1092.74 C 2778.94 1143.62 2771.31 1350.92 2759.87 1408.15 C 2748.42 1465.38 2652.91 1645.70 2652.91 1645.70 L 2768.04 1760.70 C 2768.04 1760.70 2869.24 1544.23 2899.76 1494.63 C 2920.30 1461.26 2926.71 1374.57 2933.43 1320.13 L 2973.92 1717.73 L 3344.14 1717.73 L 3344.14 1467.37 L 3430.38 1742.25 L 3559.37 1733.60 C 3559.37 1733.60 3507.72 1339.37 3491.53 1249.44 C 3482.22 1197.68 3434.80 1109.02 3396.23 1043.09 C 3322.16 922.55 3267.34 935.36 3142.83 901.26 L 3142.83 901.26 Z" fill="#6584f7" fill-rule="nonzero" id="path888-3" node-id="46" stroke="none" target-height="859.44403" target-width="906.4619" target-x="2652.907" target-y="901.259"></path><path d="M 2911.73 674.91 L 2896.65 738.61 C 2811.54 741.67 2822.51 546.01 2911.73 674.91 Z" fill="#f69cb3" fill-rule="nonzero" id="path883-7" node-id="47" stroke="none" target-height="107.70972" target-width="73.26343" target-x="2838.4695" target-y="630.89825"></path><path d="M 2855.64 545.38 C 2855.64 545.38 2828.95 555.33 2817.84 583.55 C 2806.73 611.77 2868.07 688.78 2868.07 688.78 L 2855.64 545.38 Z" fill="#3d3d3d" fill-rule="nonzero" id="path876-9" node-id="48" stroke="none" target-height="143.39795" target-width="51.57495" target-x="2816.497" target-y="545.379"></path><path d="M 3084.71 494.67 C 3084.71 494.67 3123.10 486.82 3140.55 533.70 C 3157.99 580.59 3128.94 679.07 3128.94 679.07 C 3145.85 743.86 3131.48 799.70 3065.03 746.87 C 3034.66 720.87 2995.15 558.59 2995.15 558.59 C 2995.15 558.59 2893.24 590.08 2845.33 563.59 C 2797.42 537.10 2737.04 445.77 2793.88 418.39 C 2850.73 391.00 2870.53 431.43 2998.02 407.12 C 3064.59 394.42 3100.35 445.27 3084.71 494.67 L 3084.71 494.67 Z" fill="#3d3d3d" fill-rule="nonzero" id="path874-8" node-id="49" stroke="none" target-height="362.6632" target-width="375.2224" target-x="2770.868" target-y="405.20074"></path><path d="M 3112.51 707.30 C 3112.51 707.30 3118.43 790.07 3125.11 825.59 C 3131.78 861.11 3133.84 880.58 3133.84 880.58 L 3058.03 972.63 L 3006.28 936.71 L 3017.59 841.15 L 3112.51 707.30 Z" fill="#f6c6c0" fill-rule="nonzero" id="path885-0" node-id="50" stroke="none" target-height="265.32898" target-width="127.558105" target-x="3006.283" target-y="707.299"></path><path d="M 3112.51 707.30 L 3017.59 841.15 L 3009.04 913.43 C 3027.73 914.59 3047.49 911.00 3059.93 895.10 C 3089.42 857.37 3087.75 772.47 3087.75 772.47 L 3112.51 707.30 Z" fill="#f69cb3" fill-rule="nonzero" id="path887-5" node-id="51" stroke="none" target-height="206.32721" target-width="103.471924" target-x="3009.037" target-y="707.3"></path><path d="M 3112.51 707.30 C 3194.98 686.05 3128.87 501.57 3079.95 650.51 C 3056.89 622.18 3011.45 582.36 3023.84 519.42 C 2964.39 548.80 2914.91 572.05 2845.33 563.59 C 2860.96 859.02 3032.98 1015.05 3112.51 707.30 Z" fill="#f6c6c0" fill-rule="nonzero" id="path870-43" node-id="52" stroke="none" target-height="355.62866" target-width="306.26904" target-x="2845.33" target-y="519.422"></path><path d="M 3103.06 668.38 C 3102.47 666.94 3103.81 644.70 3113.94 628.03 C 3124.06 611.36 3137.08 627.71 3137.08 627.71 C 3137.08 627.71 3125.42 625.98 3120.61 637.33 C 3115.79 648.67 3138.90 658.62 3121.00 674.14 C 3103.11 689.66 3103.06 668.38 3103.06 668.38 L 3103.06 668.38 Z" fill="#f69cb3" fill-rule="nonzero" id="path894-53" node-id="53" stroke="none" target-height="59.279724" target-width="34.11743" target-x="3102.9595" target-y="620.5216"></path><path d="M 3058.03 972.63 L 3133.84 880.58 L 3128.05 845.99 C 3158.90 867.71 3186.42 895.03 3181.57 913.22 L 3119.91 1043.95 L 3058.03 972.63 Z" fill="#ffffff" fill-rule="nonzero" id="path881-8" node-id="54" stroke="none" target-height="197.961" target-width="124.05786" target-x="3058.035" target-y="845.993"></path><path d="M 3011.97 929.65 L 3012.77 882.05 C 2986.89 907.93 2960.46 934.65 2967.86 964.45 C 2970.24 973.26 2996.59 1041.12 2996.59 1041.12 L 3058.04 972.63 L 3011.97 929.65 Z" fill="#ffffff" fill-rule="nonzero" id="path884-66" node-id="55" stroke="none" target-height="159.06897" target-width="91.417725" target-x="2966.6182" target-y="882.047"></path><path d="M 2974.43 1745.08 L 2992.33 2707.03 L 2996.66 2939.58 L 3094.96 2939.58 L 3119.37 2707.03 L 3176.26 2165.16 L 3310.12 2707.03 L 3367.56 2939.58 L 3457.72 2939.58 L 3432.13 2707.03 L 3350.51 1771.42 L 2974.43 1745.08 Z" fill="#ff6853" fill-rule="nonzero" id="path16354-20" node-id="56" stroke="none" target-height="1194.505" target-width="483.29492" target-x="2974.428" target-y="1745.078"></path><path d="M 3119.37 2707.02 L 2992.33 2707.02 L 2996.66 2939.58 L 3094.96 2939.58 L 3119.37 2707.02 Z" fill="#e0523c" fill-rule="nonzero" id="path935-02" node-id="57" stroke="none" target-height="232.5581" target-width="127.043945" target-x="2992.33" target-y="2707.024"></path><path d="M 3432.14 2707.02 L 3310.12 2707.02 L 3367.56 2939.58 L 3457.72 2939.58 L 3432.14 2707.02 Z" fill="#e0523c" fill-rule="nonzero" id="path933-6" node-id="58" stroke="none" target-height="232.5581" target-width="147.60596" target-x="3310.117" target-y="2707.024"></path><path d="M 3176.26 2165.16 L 3128.45 1986.73 L 3091.38 1986.73 L 3151.66 2401.66 L 3176.26 2165.16 Z" fill="#e0523c" fill-rule="nonzero" id="path925-28" node-id="59" stroke="none" target-height="414.9259" target-width="84.88501" target-x="3091.377" target-y="1986.732"></path><path d="M 2973.92 1717.73 L 2973.95 1745.04 L 3350.51 1771.42 L 3344.15 1717.73 L 2973.92 1717.73 Z" fill="#ffffff" fill-rule="nonzero" id="path927-39" node-id="60" stroke="none" target-height="53.684937" target-width="376.59595" target-x="2973.919" target-y="1717.734"></path><path d="M 2996.66 2968.98 L 3091.80 2970.08 L 3086.82 3005.84 C 3086.82 3005.84 2995.47 2999.89 2995.26 2998.86 C 2995.05 2997.83 2996.66 2968.98 2996.66 2968.98 L 2996.66 2968.98 Z" fill="#ffffff" fill-rule="nonzero" id="path915-11" node-id="61" stroke="none" target-height="36.865967" target-width="96.53491" target-x="2995.26" target-y="2968.977"></path><path d="M 2837.29 3090.74 L 3096.29 3090.74 L 3086.82 3005.84 L 3055.97 2997.40 C 3034.97 2977.13 2996.53 2972.16 2970.30 3002.04 C 2970.30 3002.04 2922.29 3036.58 2898.87 3037.17 C 2851.42 3037.17 2833.68 3046.25 2837.29 3090.74 L 2837.29 3090.74 Z" fill="#3d3d3d" fill-rule="nonzero" id="path929-35" node-id="62" stroke="none" target-height="109.83057" target-width="259.41846" target-x="2836.8687" target-y="2980.9146"></path><path d="M 3378.03 3005.84 L 3367.56 2939.58 L 3438.81 2939.58 L 3457.72 2939.58 L 3469.83 3032.95 L 3378.03 3005.84 Z" fill="#f6c6c0" fill-rule="nonzero" id="path924-53" node-id="63" stroke="none" target-height="93.36304" target-width="102.26904" target-x="3367.564" target-y="2939.582"></path><path d="M 3461.82 2968.98 L 3372.36 2970.08 L 3378.03 3005.84 C 3378.03 3005.84 3469.38 2999.89 3469.59 2998.86 C 3469.79 2997.83 3461.82 2968.98 3461.82 2968.98 Z" fill="#ffffff" fill-rule="nonzero" id="path926-45" node-id="64" stroke="none" target-height="36.865967" target-width="97.22681" target-x="3372.361" target-y="2968.977"></path><path d="M 3529.80 3090.74 L 3374.32 3090.74 L 3378.03 3005.84 L 3408.88 2997.40 C 3429.88 2977.13 3461.82 2968.98 3479.43 2998.84 C 3502.27 3057.99 3533.49 3033.46 3529.80 3090.74 Z" fill="#3d3d3d" fill-rule="nonzero" id="path928-4" node-id="65" stroke="none" target-height="111.47412" target-width="155.76318" target-x="3374.318" target-y="2979.271"></path><path d="M 2646.70 1626.21 C 2646.70 1626.21 2578.08 1659.33 2554.70 1670.12 C 2531.32 1680.92 2535.81 1710.59 2535.81 1710.59 C 2535.81 1710.59 2679.70 1726.78 2690.49 1725.88 C 2701.28 1724.98 2733.66 1671.03 2733.66 1671.03 L 2646.70 1626.21 Z" fill="#f6cdc1" fill-rule="nonzero" id="path13614" node-id="66" stroke="none" target-height="99.68396" target-width="198.18066" target-x="2535.4792" target-y="1626.213"></path><path d="M 2782.66 1715.56 L 2646.70 1626.21 L 2670.16 1555.67 L 2816.20 1678.69 L 2782.66 1715.56 Z" fill="#ffffff" fill-rule="nonzero" id="path17948-9" node-id="67" stroke="none" target-height="159.88708" target-width="169.49487" target-x="2646.705" target-y="1555.669"></path><path d="M 3481.53 2068.48 C 3497.58 2079.07 3511.98 2062.25 3526.48 2026.06 C 3541.46 1988.69 3589.07 1900.43 3586.32 1882.09 C 3583.57 1863.76 3548.25 1773.43 3548.25 1773.43 L 3547.50 1770.57 L 3456.88 1783.14 C 3453.45 1793.43 3446.33 1804.28 3436.87 1822.19 C 3435.79 1824.25 3399.75 1883.34 3399.57 1909.47 C 3399.39 1935.60 3447.97 1928.76 3447.97 1928.76 C 3447.97 1928.76 3463.29 2054.60 3479.97 2067.37 C 3480.49 2067.77 3481.01 2068.14 3481.53 2068.48 L 3481.53 2068.48 Z" fill="#f6cdc1" fill-rule="nonzero" id="path22607-1" node-id="68" stroke="none" target-height="301.0028" target-width="186.84497" target-x="3399.57" target-y="1770.568"></path><path d="M 3548.25 1773.43 L 3435.79 1823.99 L 3456.88 1783.14 L 3547.50 1770.57 L 3548.25 1773.43 Z" fill="#f69cb3" fill-rule="nonzero" id="path22611-0" node-id="69" stroke="none" target-height="53.422974" target-width="112.45801" target-x="3435.791" target-y="1770.568"></path><path d="M 2933.42 1320.13 L 2903.75 1229.65 C 2896.41 1281.73 2885.61 1364.71 2922.85 1408.16 C 2922.85 1408.16 2932.30 1348.12 2933.42 1320.13 Z" fill="#3362c4" fill-rule="nonzero" id="path17952-6" node-id="70" stroke="none" target-height="178.51099" target-width="36.980713" target-x="2896.4434" target-y="1229.652"></path><path d="M 3047.60 1697.23 C 3127.31 1697.23 3191.49 1761.40 3191.49 1841.12 L 3191.49 2454.17 C 3191.49 2533.88 3127.31 2598.06 3047.60 2598.06 L 1644.87 2598.06 L 1644.87 1697.23 L 3047.60 1697.23 Z" fill="#b7bbff" fill-rule="nonzero" id="path13163" node-id="71" stroke="none" target-height="900.8301" target-width="1546.618" target-x="1644.869" target-y="1697.229"></path><path d="M 2413.04 1697.23 L 2413.04 2598.06 L 3047.60 2598.06 C 3127.31 2598.06 3191.49 2533.88 3191.49 2454.17 L 3191.49 1841.12 C 3191.49 1761.40 3127.31 1697.23 3047.60 1697.23 L 2413.04 1697.23 Z" fill="#a5a3ff" fill-rule="nonzero" id="path13167" node-id="72" stroke="none" target-height="900.8291" target-width="778.44995" target-x="2413.037" target-y="1697.229"></path><path d="M 2771.97 2019.24 C 2768.29 2019.24 2764.66 2020.52 2761.24 2023.40 C 2723.26 2053.91 2683.22 2084.71 2620.39 2137.74 C 2592.62 2164.23 2612.37 2196.94 2632.97 2196.94 L 2761.24 2196.94 C 2771.16 2196.94 2780.35 2193.89 2787.92 2188.68 L 2787.92 2028.05 C 2787.92 2027.52 2787.94 2026.99 2787.96 2026.47 C 2787.95 2026.48 2787.93 2026.49 2787.92 2026.50 C 2782.89 2022.02 2777.39 2019.24 2771.97 2019.24 Z M 2787.96 2026.47 C 2787.98 2026.99 2787.99 2027.52 2787.99 2028.05 L 2787.99 2188.68 C 2795.57 2193.89 2804.75 2196.94 2814.68 2196.94 L 2942.95 2196.94 C 2963.55 2196.94 2983.30 2164.23 2955.53 2137.74 C 2878.79 2076.66 2854.85 2056.10 2814.68 2023.40 C 2811.26 2020.52 2807.62 2019.24 2803.95 2019.24 C 2798.53 2019.25 2793.02 2022.03 2787.99 2026.50 C 2787.98 2026.49 2787.97 2026.48 2787.96 2026.47 Z" fill="#e3e1ff" fill-rule="nonzero" id="rect12833" node-id="73" stroke="none" target-height="177.69788" target-width="362.4558" target-x="2606.73" target-y="2019.244"></path><path d="M 2784.98 1931.02 C 2764.63 1931.02 2747.17 1947.43 2748.25 1967.75 L 2763.65 2257.10 L 2723.25 2291.15 C 2714.72 2298.35 2710.92 2300.54 2710.92 2311.71 L 2710.92 2320.57 C 2710.92 2331.73 2719.91 2340.72 2731.07 2340.72 C 2772.39 2338.43 2803.88 2340.72 2844.77 2340.72 C 2855.93 2340.72 2864.92 2331.73 2864.92 2320.57 L 2864.92 2311.71 C 2864.92 2300.54 2861.12 2298.35 2852.59 2291.15 L 2809.21 2254.58 L 2821.70 1967.75 C 2822.59 1947.42 2805.32 1931.02 2784.98 1931.02 Z" fill="#f2f4ff" fill-rule="nonzero" id="rect11859" node-id="74" stroke="none" target-height="409.70093" target-width="154.00317" target-x="2710.919" target-y="1931.02"></path><path d="M 2228.96 1848.03 L 1737.61 1848.03 L 1737.61 1911.62 L 2228.96 1911.62 L 2228.96 1848.03 Z" fill="#e3e1ff" fill-rule="nonzero" id="path13174" node-id="75" stroke="none" target-height="63.590942" target-width="491.35608" target-x="1737.608" target-y="1848.031"></path><path d="M 1923.60 1981.13 L 1737.61 1981.13 L 1737.61 2044.72 L 1923.60 2044.72 L 1923.60 1981.13 Z" fill="#e3e1ff" fill-rule="nonzero" id="path13176" node-id="76" stroke="none" target-height="63.590942" target-width="185.98792" target-x="1737.608" target-y="1981.128"></path><path d="M 2228.96 2237.61 L 1737.61 2237.61 L 1737.61 2301.20 L 2228.96 2301.20 L 2228.96 2237.61 Z" fill="#e3e1ff" fill-rule="nonzero" id="path13178" node-id="77" stroke="none" target-height="63.591064" target-width="491.35608" target-x="1737.608" target-y="2237.614"></path><path d="M 1923.60 2370.71 L 1737.61 2370.71 L 1737.61 2434.30 L 1923.60 2434.30 L 1923.60 2370.71 Z" fill="#e3e1ff" fill-rule="nonzero" id="path13180" node-id="78" stroke="none" target-height="63.590088" target-width="185.98792" target-x="1737.608" target-y="2370.711"></path><path d="M 2693.24 1659.54 C 2693.24 1659.54 2673.93 1714.41 2667.63 1739.59 C 2661.34 1764.77 2682.23 1773.72 2696.86 1762.08 C 2716.65 1746.34 2748.56 1696.05 2746.76 1692.45 C 2744.96 1688.86 2693.24 1659.54 2693.24 1659.54 L 2693.24 1659.54 Z" fill="#f6cdc1" fill-rule="nonzero" id="path13612" node-id="79" stroke="none" target-height="107.54028" target-width="80.30371" target-x="2666.5122" target-y="1659.542"></path><path d="M 2646.70 1626.21 L 2735.80 1714.87 C 2735.80 1714.87 2746.25 1701.94 2747.37 1698.23 C 2748.50 1694.52 2746.14 1691.82 2746.14 1691.82 L 2646.70 1626.21 Z" fill="#f69cb3" fill-rule="nonzero" id="path13616" node-id="80" stroke="none" target-height="88.65198" target-width="100.970215" target-x="2646.705" target-y="1626.213"></path><path d="M 3316.66 1321.84 L 3249.81 1236.81 C 3263.58 1339.94 3304.02 1409.88 3344.14 1467.37 C 3336.28 1415.64 3330.03 1385.76 3316.66 1321.84 Z" fill="#3362c4" fill-rule="nonzero" id="path17950-9" node-id="81" stroke="none" target-height="230.55798" target-width="94.33203" target-x="3249.809" target-y="1236.807"></path><path d="M 3563.53 1783.42 L 3439.99 1787.27 L 3430.38 1742.25 L 3559.37 1733.60 L 3563.53 1783.42 Z" fill="#ffffff" fill-rule="nonzero" id="path22609-1" node-id="82" stroke="none" target-height="53.670044" target-width="133.15405" target-x="3430.38" target-y="1733.604"></path></svg>